<svg id="Capa_1" data-name="Capa 1" xmlns="http://www.w3.org/2000/svg" viewBox="0 0 500 147"><defs><style>.cls-1{fill:#0669f9;}.cls-2{fill:#f4cd2a;}</style></defs><path class="cls-1" d="M211.37,92l-18.8-26.12h-36V95.83H143.88V15.2h53.61C216,15.2,227.4,26,227.4,40.63c0,12.14-8.24,20.67-21.24,23.85l22.39,31.35h-9.77A9.14,9.14,0,0,1,211.37,92ZM156.59,25.75V55.52h38.3c12.57,0,19.5-5.06,19.5-14.89s-6.93-14.88-19.5-14.88Z"/><path class="cls-1" d="M289.17,47l41.91,48.84H319.94A9.1,9.1,0,0,1,313,92.67l-32.82-38L254.5,74.59V95.83H241.92V15.2H254.5V60.72L313.45,15.2h16Z"/><path class="cls-1" d="M76.54,13.76,22.79,95.83h9a9.12,9.12,0,0,0,7.67-4.18l37-57.52,37,57.52a9.12,9.12,0,0,0,7.67,4.18h9.19Z"/><path class="cls-1" d="M363.22,118.88a1.59,1.59,0,0,1-1.75,1.72h-11a4.94,4.94,0,0,0,5.21,4.24,5.35,5.35,0,0,0,4.18-1.78,1.39,1.39,0,0,1,1.06-.5,1.24,1.24,0,0,1,1.32,1.28,1.37,1.37,0,0,1-.29.82,8,8,0,0,1-6.27,2.71c-4.87,0-8.09-3.15-8.09-7.83s3.22-7.84,7.93-7.84c4.4,0,7.65,3.12,7.65,7.12Zm-12.64-.72h10a5.14,5.14,0,0,0-10,0Z"/><path class="cls-1" d="M380.65,118.66v7.06a1.32,1.32,0,0,1-1.38,1.46,1.3,1.3,0,0,1-1.34-1.46v-6.78c0-3.09-1.5-4.71-4.37-4.71s-4.72,2-4.72,5.27v6.22a1.36,1.36,0,1,1-2.71,0V113.35a1.36,1.36,0,1,1,2.71,0v.75h.07a6.24,6.24,0,0,1,5.3-2.4C378.4,111.7,380.65,114.13,380.65,118.66Z"/><path class="cls-1" d="M399.07,118.88a1.59,1.59,0,0,1-1.75,1.72h-11a5,5,0,0,0,5.22,4.24,5.35,5.35,0,0,0,4.18-1.78,1.39,1.39,0,0,1,1.06-.5,1.24,1.24,0,0,1,1.31,1.28,1.36,1.36,0,0,1-.28.82,8,8,0,0,1-6.27,2.71c-4.87,0-8.09-3.15-8.09-7.83s3.22-7.84,7.93-7.84c4.4,0,7.65,3.12,7.65,7.12Zm-12.64-.72h10a5.14,5.14,0,0,0-10,0Z"/><path class="cls-1" d="M411.22,113.17a1.27,1.27,0,0,1-1.38,1.34c-3.27,0-5.15,1.9-5.15,6v5.25a1.36,1.36,0,1,1-2.71,0V113.39c0-.94.5-1.5,1.34-1.5a1.32,1.32,0,0,1,1.37,1.5v1.09h.07a5.46,5.46,0,0,1,5.08-2.69A1.28,1.28,0,0,1,411.22,113.17Z"/><path class="cls-1" d="M427.61,113.39v12.42c0,4.59-3,7.37-7.83,7.37-3,0-5.53-.94-6.69-2.41a1.55,1.55,0,0,1-.28-.87,1.33,1.33,0,0,1,2.34-.84,6,6,0,0,0,4.53,1.59c3.22,0,5.22-1.81,5.22-4.71v-1.38h-.07a6.88,6.88,0,0,1-5.71,2.44c-4.4,0-7.34-3.06-7.34-7.65s2.94-7.65,7.34-7.65a7,7,0,0,1,5.71,2.43h.07v-.74c0-.94.49-1.5,1.34-1.5A1.33,1.33,0,0,1,427.61,113.39Zm-2.71,6a4.9,4.9,0,0,0-5.28-5.12,5.12,5.12,0,0,0,0,10.24A4.9,4.9,0,0,0,424.9,119.35Z"/><path class="cls-1" d="M445.54,113.39v12.39c0,4.62-2.85,7.4-7.5,7.4-2.78,0-5.05-.78-6.3-2.41a1.48,1.48,0,0,1-.28-.87,1.27,1.27,0,0,1,1.34-1.31,1.3,1.3,0,0,1,1,.47,5.54,5.54,0,0,0,4.18,1.59c3,0,4.84-1.81,4.84-4.75v-1.31h-.06a6.26,6.26,0,0,1-5.28,2.41c-4.12,0-6.37-2.44-6.37-7v-6.65a1.33,1.33,0,0,1,1.38-1.5c.84,0,1.34.56,1.34,1.5v6.36c0,3.09,1.5,4.72,4.31,4.72s4.68-2,4.68-5.28v-5.8a1.37,1.37,0,1,1,2.72,0Z"/><path class="cls-1" d="M398.94,13.59,345.18,95.66h9a9.09,9.09,0,0,0,7.67-4.18L398.94,34l37,57.52a9.12,9.12,0,0,0,7.67,4.18h9.18Z"/><polygon class="cls-2" points="477.64 95.66 423.74 13.59 398.94 13.59 452.83 95.66 477.64 95.66"/></svg>